# xmcd
#
# Track frame offsets:
#	150
#	17410
#	27977
#	44630
#	66245
#	80940
#	115117
#	128555
#	139142
#	165170
#	188010
#	200127
#	220657
#	238465
#
# Disc length: 3233 seconds
#
# Revision: 0
# Processed by: cddbd v1.5.2PL0 Copyright (c) Steve Scherf et al.
# Submitted via: audiograbber 1.83.01
#
DISCID=c80c9f0e
DTITLE=Various Artist - New Orleans Gumbo (Fab 14)
DYEAR=2004
DGENRE=Blues
TTITLE0=Tracy Nelson - Miss You Like The Devil
TTITLE1=Professor Longhair - Every Day, Every Night
TTITLE2=Bo Dollis and The Wild Magnolias - Iko Iko
TTITLE3=The Mardi Gras Indians - Yella Pocahontas
TTITLE4=James Booker - Baby Face
TTITLE5=Johnny Adams - Half Awoke
TTITLE6=Irma Thomas - I Won't Cry For Me
TTITLE7=Tommy Ridgley - Three Times
TTITLE8=Davell Crawford - Still In Love
TTITLE9=Marcia Ball - That's What I Get
TTITLE10=Al Johnson - Carnival Time
TTITLE11=Chuck Carbo - I'd Rather Beg
TTITLE12=George Porter Jr. - Runnin' Partner
TTITLE13=Tuts Washington - Cherry Pink and Apple Blossom White
EXTD=
EXTT0=
EXTT1=
EXTT2=
EXTT3=
EXTT4=
EXTT5=
EXTT6=
EXTT7=
EXTT8=
EXTT9=
EXTT10=
EXTT11=
EXTT12=
EXTT13=
PLAYORDER=
